<?xml version="1.0" encoding="utf-8"?>
<!-- Generator: Adobe Illustrator 22.0.1, SVG Export Plug-In . SVG Version: 6.00 Build 0)  -->
<svg version="1.1" id="Capa_1" xmlns="http://www.w3.org/2000/svg" xmlns:xlink="http://www.w3.org/1999/xlink" x="0px" y="0px"
	 width="500px" height="190px" viewBox="0 0 500 190" style="enable-background:new 0 0 500 190;" xml:space="preserve">
<style type="text/css">
	.st0{fill:#F59B9A;}
	.st1{fill:#ECAFB0;}
</style>
<g>
	<path class="st0" d="M40.2,111.5c-2,1.4-2.5,3.6-2.9,5.8c-0.3,1.6-0.9,3.2-1.4,4.8c-0.4,1.2-0.3,2.3,0.1,3.4
		c4.1,12.7,10.2,24.3,18.1,34.9c0.7,0.9,1.4,1.9,2.1,2.8c0.4,0.6,0.9,1,1.7,0.6c0.7-0.3,1.5-0.1,2.4,0.3c-0.1-1.8-0.5-3-2.2-3.7
		c-0.4-0.2-0.9-0.4-1.3-0.7c-0.9-0.6-1.2-1.6-0.8-2.1c0.8-0.9,1.3,0,1.9,0.3c0.8,0.3,1.9-0.2,2,1.2c0.4,1.4,0.8,2.9,1.2,4.2
		c0.6,0.1,0.8-0.2,1.1-0.4c0.4-0.3,0.8-0.7,1.3-0.4c0.4,0.3,0.3,0.7,0.3,1.1c0,0.7-0.2,1.3-0.6,1.7c-0.8,0.9-0.6,1.7-0.3,2.8
		c1.4,4.8,5,7.8,8.5,10.9c2.5,2.3,5.1,4.4,7.9,6.4c1.8,1.3,3.7,2.3,5.7,4.1c-1.8,0.2-3.1-0.3-4.3-1.1c-4.9-3.3-9.5-7.1-14.1-10.8
		c-1.2-1-2.3-2.2-3.4-3.3c-1.8-1.9-4-3.3-6.2-4.8c-2.9-2-6.2-3.4-9.2-5.2c-0.7-0.4-1.5-0.8-2.3-0.8c-0.8-0.6-1.3-1.5-2.1-2.1
		c-4.2-2.7-8-5.9-11.3-9.6c-2.4-2.6-4.4-5.5-6.2-8.5c-1.1-2-2.2-4-3.2-6c-0.5-0.6-0.7-1.3-0.8-2l-0.1-0.4c0.4-0.8,0.9-0.6,1.3,0
		c2.3,3.7,4.5,7.5,7,11c5.3,7.2,11.5,13.2,19.7,16.9c1.5,0.7,2.8,1.7,4.1,2.8c0.6,0.5,1.1,1.1,2.1,1.2c-0.3-1.4-1.4-2.1-2.1-3
		c-4-5.3-7.7-10.9-11-16.8c-3.7-6.8-6.8-13.9-9.2-21.2c-1.6-5-3.1-10-3.8-15.2c-0.8-6.1-4.3-10.5-9-14.1c-1.1-0.9-2.2-1.7-3.3-2.5
		c-0.4-0.3-1-0.8-1.4,0.1c-1.1,2.5-3.4,3.4-5.6,4.2c-3,1.1-6.1,1.8-9.2,2.5c-0.4,0.1-0.8,0.3-1.2-0.1c-0.3-0.4-0.2-0.9,0.1-1.3
		c2-2.7,3.9-5.6,7-7.2c0.8-0.4,1.6-1,2.6-1.6c-2.5-0.9-5-1.1-7.2-2C2,88.3,1.3,87.8,0.6,87C-0.1,86.2,0,85.6,1,85
		c0.7-0.4,1.5-0.5,2.4-0.3c2.9,0.6,5.2,2.2,7.5,3.8c0.4,0.3,0.7,0.6,1.3,0.8c-2.9-4.8-3.5-9.8-1.5-15.1c1,0.4,1.5,1.1,1.9,1.9
		c0.7,1.4,1.4,2.7,2,4.1c1.2,2.7,1.7,5.4,0.5,8.2c-0.4,0.8-0.3,1.6,0.4,2.3c2.1,2.1,4.6,3.6,6.9,5.5c0.6-0.7,0.1-1.1-0.1-1.5
		c-0.4-0.9-0.4-1.7-0.1-2.6c0.2-0.6,0.5-1.2,1.2-1.2c0.7,0,1.2,0.4,1.4,1.1c0.3,0.9,0.7,1.8,0.8,2.8c0.1,1.4,0.8,2.7,0.3,4.1
		c-0.1,0.3-0.1,0.6,0.1,0.8c0.9,1,1.5,2.3,2.7,3.2c-0.1-1.5-0.1-2.8-0.2-4.1c-0.3-0.6-0.1-1.3-0.2-2c0-0.5-0.1-1,0.6-1.1
		c0.6,0,0.8,0.5,0.9,0.9c0.5,1.5,0.3,3.1,0.7,4.6c1.1,6.8,2,13.7,4.2,20.7c1-1.5,1.2-3,1.6-4.4c0.2-0.6,0.2-1.2,0.4-1.8
		c0.6-1.4,0.3-2.3-0.7-3.5c-2-2.2-2.1-5-1.4-7.8c0.8-3.1,2.6-5.7,4.4-8.4c0.4-0.6,0.8-0.7,1.3-0.2c0.7,0.7,1.4,1.4,1.4,2.4
		c0.4,1.1,0.4,2.2-0.7,3c-2.1,1.5-2.2,3.6-1.7,5.9C39.8,108.5,41,109.8,40.2,111.5"/>
	<path class="st0" d="M29.4,70.4c0.5-3.2,0.9-6.4,1.8-9.5c0.5-1.6,0.5-3.1-0.7-4.5c-0.6-0.7-0.9-1.6-1-2.5c-0.1-0.6-0.4-1.3,0.4-1.6
		c0.6-0.3,1,0.3,1.4,0.7c0.4,0.5,0.6,1.1,1.2,1.3c0.3,0,0.5-0.1,0.5-0.3c1.6-5.4,3.4-10.8,5.9-15.9c0.6-1.2,0.6-2.4,0.3-3.6
		c-1.1-4.5-3.2-8.5-6-12.1c-0.7-0.9-1.1-1.3-2,0c-1.4,1.9-3.4,2.2-5.6,1.7c-0.8-0.2-1.6-0.3-2.5-0.2c-2.4,0.1-4.8-0.5-7.2-0.5
		c-0.5,0-1-0.1-1.2-0.6c-0.2-0.6,0.3-0.9,0.6-1.2c2.2-2,4.8-3.5,7.6-4.4c0.9-0.3,1.9-0.3,2.7-1.2c-0.7-1.1-1.7-2-2.7-2.7
		c-1-0.7-2.1-1.4-2.9-2.4c-0.9-1.1-1.1-2-0.6-2.6c0.9-0.9,1.9-0.9,3.1,0.1c1.8,1.7,3.6,3.4,5.5,5.1c0.3,0.3,0.6,0.7,1,0.5
		c0.5-0.2,0.4-0.7,0.4-1.1c0-1.9,0.1-3.8,0.3-5.8c0.3-2.3,1.8-3.8,2.8-5.7c0.2-0.3,0.6-0.5,0.9-0.2c0.5,0.6,1.4,1.1,1.4,2
		c-0.1,2.3,0.6,4.5,0.2,6.8c-0.4,2.5-1.6,4.5-2.6,6.7c-0.3,0.7-0.5,1.2-0.1,1.9c1.3,2.6,3,4.9,4.8,7.6c0.4-1.1,0.2-1.9,0.3-2.7
		c0-0.5-0.1-1.1,0.3-1.6c0.3-0.4,0.7-0.7,1.2-0.6c0.6,0.1,0.8,0.5,0.8,1c0.4,2,0.5,4-0.3,5.9c-0.5,1.2-0.6,2.3,0,3.6
		c0.8,1.8,0.9,3.7,1.1,5.6c0.1,0.8,0,1.7-0.3,2.4c-1,2.3-2,4.7-2.9,7c-0.4,1.8,0,3.9-1.7,5.4c-0.9,3.2-1.8,6.3-2.6,9.5
		c-1,4.2-1.5,8.5-2.2,12.7c-0.2,1-0.2,2-0.3,3.1c-0.5,3.5,0.2,7-0.1,10.5c-0.1,1,0,2.1-0.1,3.1c-0.2,0.6-0.2,1.5-1.1,1.5
		c-0.9,0-0.8-1-1-1.6c-0.2-0.6,0.1-1.2-0.3-1.8c0-3.4-0.2-6.8,0.3-10.3c0.1-0.6-0.1-1.2-0.3-1.8c-0.3-0.3-0.2-0.6-0.1-1
		C28.9,74.5,29.2,72.5,29.4,70.4"/>
	<path class="st0" d="M28.2,89.5c0.8,0.9,0.2,2.3,1.2,3.1c0.6-0.2,0.3-0.7,0.4-1c1.2,0.2,0.7,0.9,0.6,1.4c0.2-2.4,1.9-4.8,0.3-7.4
		c-0.3-0.5-0.2-1.3,0.3-1.9c1.1-0.3,1.5,0.7,2.1,1.5c1-1.4,1.7-2.6,0.6-4.1c-0.4-0.6-0.3-1.5-0.3-2.2c0-0.5,0.2-1,0.7-1.1
		c0.6-0.2,0.9,0.3,1.2,0.7c0.3,0.3,0.1,0.8,0.8,1.1c1.6-1.8,2.8-3.7,1.9-6.4c-0.2-0.5-0.5-0.8-1-1c-1-0.4-1.8-0.9-2.6-1.7
		c-0.5-0.5-0.8-1-0.4-1.7c0.4-0.6,1.1-0.4,1.7-0.3c0.9,0.1,1.2,1.1,2.1,1.3c1-1.5,0.7-3-0.2-4.2c-1.2-1.8-0.9-3.7-0.9-5.6
		c0-0.7,0.4-1.3,0.9-1.8c1-1,2.3-0.8,2.8,0.6c0.8,2.3,0.7,4.5-0.6,6.6c-0.9,1.4-0.8,3-1.1,4.9c1-1,1.1-1.9,1.1-2.7
		c0.1-1.5,0.9-2.8,1.7-4c0.5-0.7,1-0.6,1.4,0.1c0.6,1.1,0.3,3.1-0.7,4.3c-0.6,0.7-1.3,1.4-2.1,2c-1.5,1.2-1.7,2.7-1.3,4.5
		c1.1-0.3,1.5-1.3,2-2c1.2-1.6,2.6-3.1,4.1-4.4c1.6-1.3,2.2-3,2.3-4.9c0.1-1.5,0.1-3-0.3-4.5c-0.2-0.8-0.3-1.5-1-1.9
		c-0.2-0.1-0.3-0.3-0.4-0.4c-0.5-0.7-0.5-2,0-2.5c0.7-0.7,1.4-0.4,2.1,0c0.9,0.5,1.3,1.4,0.7,2.3c-0.7,1.1-0.8,2.2-0.6,3.4
		c0,0.3,0.1,0.5,0.5,0.7c0.8-1.2,1.5-2.3,2.1-3.7c0.2-0.6,0.1-1,0-1.6c-0.3-1.1,0-1.9,0.9-2.2c0.9-0.4,1.8-0.1,2.4,0.7
		c0.2,0.3,0.4,0.7,0.6,1c0.5,0.1,0.8-0.3,1.2-0.4c1.2-0.4,2.1-0.2,2.6,1c0.4,1,1,1.3,1.9,1.5c1.8,0.4,2.4,1.5,2,3.2
		c-0.2,1-0.8,1.6-1.7,1.9c-0.9,0.3-1.8,0.1-2.4-0.8c-0.7-1.1-1.3-1.1-2.3-0.4c-1.7,1.2-3.8,1.6-5.7,2.5c-0.4,0.2-0.9,0.3-1.3,0.5
		c-0.6,0.4-1.2,1.8-0.9,2.1c0.5,0.6,1.2,0.4,1.7,0.2c0.7-0.2,1.4-0.5,2.1,0.2c0.8,0.8,1.7,1.6,2,2.8c0.1,0.6-0.3,1-0.7,1.4
		c-0.5,0.4-1.1,0.4-1.6,0c-0.9-0.6-1.6-1.5-2.1-2.5c-0.5-1.2-1-1.3-2-0.5c-0.9,0.7-4.2,4.7-4.9,6c0.9,0.3,1.9,0.2,2.7,0.8
		c0.5,0.3,0.9,0.6,0.8,1.3c-0.1,0.7-0.7,1-1.3,1c-1,0.1-1.9-0.3-2.7-0.8c-0.7-0.4-1.3-0.4-1.8,0.3c-2.3,3-4.1,6.2-5.6,9.6
		c0,0.1,0,0.3,0,0.4c0.5,0.3,0.9-0.1,1.4,0c0.3,0.1,0.7,0,0.8,0.4c0.1,0.4,0,0.7-0.3,0.9c-0.7,0.8-1.5,1.4-2.6,1.5
		c-0.9,0-1.2,0.5-1.2,1.3c-0.4,0.3,0,0.9-0.4,1.2c-0.5,0.8-0.8,1.6-0.8,2.5c-0.4,0.3,0,0.9-0.4,1.3c-0.8,2-0.3,4.1-0.4,6.2
		c-0.4-1.5-0.8-3-1.3-4.5c-0.1-0.3-0.1-0.6-0.6-0.7c-0.5,0.8-0.1,1.8-0.3,2.7c-0.4-0.4-0.4-0.9-0.4-1.3
		C28.2,94.7,28.2,92.1,28.2,89.5"/>
	<path class="st0" d="M35.6,52.5c0.5-1.1,0.9-2.2,0.9-3.5c0-0.6,0.2-1.4,0.8-1.9c0.1,0.3-0.1,0.7,0.2,0.9c0.1-0.1,0.3-0.1,0.3-0.2
		c2.4-4.2,5.8-7.5,9.3-10.8c1.1-1,1.6-2.2,1.7-3.6c0.2-3,1.3-5.7,2.9-8.1c1-1.5,2-2.8,1.3-4.9c-0.4-1.3,0.6-2.3,1.9-2.4
		c1.3-0.1,2.8,0.8,3,1.8c0.1,0.9-0.4,1.5-1.1,1.9c-3.5,1.8-4.8,5.2-6.2,8.5c-0.4,1-0.9,2.2-0.4,3.3c0.2,0,0.4,0.1,0.4,0
		c2.5-2,4.9-4,7.4-6c0.7-0.6,1.3-1.2,0.9-2.3c-0.4-1.1,0.4-1.7,1.2-2.1c1-0.5,1.9-0.1,2.7,0.5c0.7,0.5,1.1,1.3,0.8,2.2
		c-0.3,0.9-1,1.4-1.9,1.3c-1.3-0.1-2.1,0.6-3.1,1.4c-2.7,2.3-5.5,4.6-8.3,6.9c-1,0.8-1.9,1.6-2.8,2.7c1.6,0.6,3,0,4.4-0.3
		c2.4-0.5,4.6-1.7,6.8-2.9c0.8-0.4,1.1-1.1,1.2-2c0.1-1.2,0.8-1.7,2-1.6c1.1,0,1.9,0.7,2,1.7c0.1,0.7-0.6,2-1.5,2
		c-2,0-3.4,1.3-5,2.1c-2.8,1.3-5.6,2.6-9,2.7c1.1,1.7,2.3,2.6,4,3c2.6,0.7,5.2,0.7,7.8,0.6c0.5,0,0.9-0.2,1.3-0.6
		c0.3-0.3,0.5-0.6,0.8-0.9c0.5-0.5,1.1-1.3,1.9-0.8c0.8,0.5,1.7,1.1,1.7,2.2c0,1-0.7,1.6-1.6,2c-0.5,0.2-1.1,0.3-1.6,0.1
		c-1-0.4-2-0.4-3.1-0.3c-2,0.1-4-0.3-6-0.5c-2.3-0.2-4.3-1.3-5.9-3.1c-0.3-0.4-0.7-0.7-1-1c-0.7-0.8-1.3-0.8-2,0
		c-1.8,2.1-3.6,4.2-5.2,6.4C38.5,48.9,37.4,51,35.6,52.5"/>
	<path class="st0" d="M60.1,159.2c-0.4-0.2-0.6-0.7-1.2-0.5c-0.4,0.1-0.7-0.3-0.9-0.7c0.9-1.7,0.4-3.3-0.7-4.7
		c-0.5-0.7-1.3-1.2-1.8-2c0.2-0.3,0.5-0.4,0.8-0.4c0.4,0.1,0.6,0.6,1.3,0.4c0-1,0-2,0-3c0.1-2.1-0.2-4.3,0.3-6.4
		c0.3-1.6-0.9-2.7-1.7-3.8c-1-1.3-2.3-2.4-3.5-3.5c-0.4-0.4-0.8-0.7-1.5-0.5c-0.7,0.3-1.2-0.1-1.7-0.5c-0.6-0.6-1-1.2-0.7-2
		c0.3-0.8,1.1-1,1.9-1c1,0,1.7,0.5,1.7,1.4c0,1.6,1,2.3,2.1,3c0.3-2-0.4-4.1-1.6-5.1c-0.6-0.5-1.4-1-1-2c0.4-1.1,1.2-1.7,2.4-1.4
		c1.1,0.3,1.5-0.2,1.9-0.9c0.7,0.9,0.8,2.3,2.1,2.8c-0.8,2-1.3,4-1.3,6.1c0.7-2.2,2.2-4.1,1.9-6.6c0.2-0.5,0.5-0.9,1-0.7
		c0.9,0.4,1,1.2,0.8,2.1c-0.5,2.5-1.8,4.8-3,7c-0.8,1.4-0.7,2.4,0.3,3.5c0.7-0.1,0.6-0.8,0.8-1.3c0.5-1.2,1.4-1.6,2.6-1.7
		c1,0,1.9,0.3,2.8,0.6c0.7,0.2,1.1,0.8,1,1.6c-0.1,0.7-0.6,1-1.2,1.2c-1.3,0.4-2.5,0.4-3.8,0c-1.3-0.4-1.5-0.2-1.5,1
		c-0.1,2.5,0,5.1,0,7.8c0.9-0.3,1.5-0.8,2.1-1.2c1-0.5,2-0.3,2.3,0.4c0.3,0.8-0.1,1.7-1.1,2.1c-0.3,0.1-0.6,0.2-1,0.3
		c-2.1,0.7-2.1,0.7-1.9,2.9C59.5,155.5,59.8,157.4,60.1,159.2"/>
	<path class="st0" d="M21.5,66.3c-2.9-0.9-3.9-3.4-4.4-6c-0.6-2.8-0.7-5.6-0.6-8.4c0.1-1.3,0.2-1.4,1.5-1.4c2.3,0.1,3.6,1.8,4.8,3.5
		c0.6,0.9,0.9,2,1.9,2.8c0.7,0.6,0.9,1.7,1,2.6c0.3,2,0.7,4.1-0.5,6C24.4,67.5,22.9,66.3,21.5,66.3"/>
	<path class="st0" d="M22,135.5c0.6,0.5,0.8,1.3,0.8,2.1c-2.7-1.3-4.9-3.2-6.8-5.6c-1.7-2.2-3.5-4.4-5.3-6.6c-0.4-0.5-1-1-1.6-1.3
		c-1.8-0.7-3.1-2-4.3-3.5c-0.6-0.8-1.1-1.4-2.2-1.2c-0.6,0.1-1.1-0.2-1.5-0.6c-0.7-0.6-1.4-1.2-1.1-2.3c0.2-0.7,0.8-0.9,1.5-0.9
		c1-0.1,2,0.1,2.3,1.2c0.7,2.2,2.4,3.6,4,5.2c-0.2-1.6-1.1-3.6-2.1-4.6C5,116.7,4.8,116,5.2,115c0.6-1.6,1.2-2.1,2.3-1.7
		c1.3,0.5,2.3,2.4,1.4,3.4c-1.5,1.6-0.6,2.8,0.2,4.2c0.8,1.5,1.9,2.8,2.9,4.3c0.2,0.4,0.5,0.8,1.2,0.9c0.1-1.4,0.3-2.8-1.4-3.6
		c-0.9-0.5-1.3-1.6-0.9-2.5c0.4-1,1.3-0.7,2-0.6c0.9,0,1.8,0.9,1.6,1.8c-0.5,1.8,0.3,3.7-0.4,5.5c-0.2,0.5-0.3,1,0.1,1.6
		c2.1,2.7,4.4,5.3,7.2,7.3C21.5,135.7,21.7,135.8,22,135.5"/>
	<path class="st0" d="M56.4,150.9c-0.2,0.3-0.5,0.4-0.8,0.4c-0.9,0.3-1.8,0.6-2.8,0.7c-1.3,0.2-2.8-0.4-2.8-1.1
		c-0.1-0.7,1-1.2,2.5-1.3c0.4,0,0.8-0.1,1.3-0.1c-0.1-1.1-0.8-1.6-1.7-1.9c-1.9-0.7-3.3-2-4.6-3.3c-0.9-0.9-1.2-2.2-1.4-3.4
		c-0.2-1.3,0.6-2.1,2-1.9c1.2,0.2,2.2,0.8,2.9,1.8c0.4,0.5,0.6,1,1.6,0.5c1.1-0.5,2.8,1.4,3,3.1c0.1,1.1,0.2,2.3-0.1,3.3
		C55,149,55.5,150,56.4,150.9"/>
	<path class="st0" d="M43.5,161.7c1.1,0.2,1.8,0.9,2.1,2.1c-0.7,0-1.4,0-2.1,0c-1.4-0.1-2.7,0-3.9,0.8c-1.3,0.9-3,0.9-4.6,0.8
		c-1.2,0-2.3,0.1-3.2,1.1c-0.8,0.9-1.5,0.6-2.5-0.6c-0.8-1-0.8-1.8,0-2.5c1-0.8,2.1-0.9,2.9,0c0.9,1,1.9,1.3,3.1,1.2
		c1.4-0.1,2.7-0.2,3.9-1c0-0.7-0.5-0.8-0.9-1c-2.3-0.7-4.3-1.9-6.1-3.3c-0.6-0.5-1.1-0.8-2-0.6c-1.4,0.3-2.9-1-3-2.4
		c-0.1-0.8,0.5-1.3,1-1.7c0.6-0.5,1.3-0.5,1.9,0c0.7,0.5,1.4,1,1.5,1.9c0.1,0.9,0.6,1.5,1.3,2c2.4,1.8,5.1,3.1,8,3.8
		c0.9,0.2,1.8,0.3,2.7,0.2C43.9,162.4,43.6,162,43.5,161.7"/>
	<path class="st0" d="M40.2,111.5c-0.1-1.7-1.1-3.2-1.5-4.9c-0.3-1.7,0-3.1,0.7-4.6c0.2-0.4,0.5-0.9,1-1c1.6-0.3,1.6-1.5,1.5-2.7
		C43.2,102.8,43.3,107.3,40.2,111.5"/>
	<path class="st0" d="M58.5,128.5c-2-0.2-2-0.3-2-2.9c0.7-1.2,1.8-1.1,2.8-0.6c0.7,0.4,1.1,0.4,1.8-0.1c1.3-1,2.4-0.9,3.3,0
		c1.1,1.2,1.1,2.7,0,4c-1.1,0.5-2.3-0.2-3.3,0.4c0,0,0,0,0,0c-0.5-0.3-0.3-0.8-0.5-1.2c-0.3-0.9-0.8-0.8-1.2,0
		C59.1,128.4,58.9,128.7,58.5,128.5"/>
	<path class="st0" d="M23.2,135.1c-0.4-0.3-0.9-0.2-1.3,0c-2-3.9-3.6-8-5.3-12.1c-0.6-1.4-1.2-2.8-1.7-4.2c-0.2-0.6-0.5-0.9-1-1.2
		c-0.7-0.4-1.1-1-1.4-1.8c-0.2-0.7-0.5-1.4,0.4-1.8c0.7-0.4,1.5-0.7,2.3,0c0.5,0.5,0.9,1,1.2,1.7c0.3,0.8-0.2,1.3-0.7,1.8
		c-0.4,0.4-0.3,0.9-0.1,1.3c0.6,1.3,1.1,2.7,1.7,4c1.8,3.8,3.5,7.6,5.6,11.3C23.1,134.4,23.1,134.8,23.2,135.1"/>
	<path class="st0" d="M21.5,66.3c1.3-0.2,2.7,0.5,3.8-0.8c-0.1,0.9,0.4,1.6,0.7,2.3c0.8,2.2,1.5,4.5,2.4,6.9
		c0.5-1.1,0.7-2.1,0.7-3.2c0-0.4,0-0.8,0.4-1.1c0.1,2.4-0.2,4.8-1.2,7c-1-1.6-1.3-3.6-2-5.3c-0.1-0.3-0.3-0.6-0.3-1
		C25.4,68.6,24.3,66.7,21.5,66.3"/>
	<path class="st0" d="M31.1,83.7c-0.1,1.1,0.1,2.2,0.8,3.1c0.4,0.5,0.5,1.1,0.3,1.8c-0.5,1.6-1,3.1-1.6,4.8
		c-0.6-0.6-0.2-1.5-0.8-1.9c-0.3-4.2,0.6-8.4,0.4-12.6c0-0.4,0-0.8,0.4-1.1c0,1.4,0,2.8,0,4.1C30.7,82.6,30.5,83.2,31.1,83.7"/>
	<path class="st1" d="M61,129.3c1-0.9,2.2-0.4,3.3-0.4C63.3,129.8,62.1,129.1,61,129.3"/>
	<path class="st0" d="M31.1,94.9c0-0.5-0.1-0.9,0.4-1.3C31.5,94.1,31.6,94.6,31.1,94.9"/>
	<path class="st0" d="M32.3,91.1c0-0.4,0-0.9,0.4-1.2C32.7,90.4,32.8,90.8,32.3,91.1"/>
	<path class="st0" d="M443.6,57.6c-0.3,0.5-1.3,0.3-1.2,1.3c-1.5,1.6-3,1.7-4,0.1c-1.1-1.6-0.5-3.4,1.4-3.8c1.1-0.2,2.1-0.3,2.3-1.8
		c0.1-0.6,0.7-0.8,1.3-0.9c0.7-0.1,1.4,0.1,1.9,0.5c0.2,0.8,0.7,1.6,0,2.5C445.6,56.9,443.7,56.5,443.6,57.6"/>
	<path class="st0" d="M443.6,124.3c-0.2,2.1-0.3,2.3-2.5,2.5l0,0c-0.1-0.4-0.4-0.7-0.8-0.9c-0.4-0.2-0.8-0.2-0.8,0.2
		c-0.1,1.2-1,1.1-1.8,1.1c-0.7,0-1.4,0-2.1,0c-1-1.2-1.1-2.8-0.3-3.9c0.6-0.8,1.9-1,2.9-0.3c0.3,0.2,0.6,0.5,0.9,0.8
		c0.3,0.3,0.6,0.3,1,0C442,122.7,442.3,122.8,443.6,124.3"/>
	<path class="st0" d="M440.3,136.4c0,0.7,0,1.4-0.4,2c-1.3,0.4-2.7,0.7-4,0.3c-0.7-0.2-1.3-0.5-1.3-1.3c-0.1-0.9,0.6-1.4,1.3-1.6
		C437.4,135.5,439,135.1,440.3,136.4"/>
	<path class="st0" d="M446.2,128.5c-2.3-0.5-2.6-1.3-1.3-3.4c0.2,0,0.4-0.1,0.6-0.1c1.4,0.1,2.1,0.5,2.2,1.4
		C447.9,127.7,447.2,128.3,446.2,128.5"/>
	<path class="st0" d="M441.5,156.6c0.1-0.2,0.2-0.3,0.4-0.5c0.5-0.3,1.1-0.5,1.5-0.1c0.5,0.5,0.3,1.2-0.1,1.7
		c-0.5,0.6-1.3,1.1-2.1,1.3c-1.1,0.4-1.8,1.2-1.8,2.5c0,0.5,0.1,0.8,0.7,0.7c0.2,0,0.4-0.2,0.6-0.1c2,0.7,3-0.8,4-2
		c5.1-6.6,9.5-13.6,13.1-21c2.4-4.9,4.6-10,6.2-15.3c0.3-1,0.3-2,0-3c-0.7-2.4-1.6-4.7-1.9-7.2c-0.2-1.7-1.5-2.5-2.5-3.7
		c-0.6-1-0.1-1.8,0.3-2.7c1-2.8,1.5-5.5-1.5-7.5c-0.8-0.5-0.7-1.4-0.4-2.2c-0.1-1.1,0.6-1.9,1.3-2.7c0.6-0.7,1.2-0.6,1.7,0.1
		c2.2,3.5,4.8,6.8,4.5,11.3c-0.1,1.8-0.5,3.4-1.9,4.7c-1,0.9-1.2,1.9-0.7,3.2c0.6,1.7,0.9,3.5,1.4,5.2c0.1,0.3,0.1,0.7,0.6,0.9
		c0.9-1.3,1-2.8,1.4-4.2c1.5-5.4,2.2-10.9,2.9-16.5c0.1-0.5,0.2-1.1,0.3-1.6c0.2-0.8,0.3-1.7,0-2.5c-0.6-2.1-1.3-4.2-1.9-6.3
		c-0.3-1.1-0.8-1.9-2.1-1.9c-0.6,0-1-0.4-1.5-0.7c-0.5-0.3-0.9-0.7-0.8-1.3c0.2-0.6,0.8-0.4,1.2-0.4c1.1,0,1.2-0.5,0.8-1.3
		c-1.5-3-3.1-6-5.2-8.7c-0.5-0.7-1.2-0.9-2-0.5c-0.6,0.3-1.1,0.7-1.6,0.9c-0.8,0.3-1.7,0.2-2.2-0.6c-0.6-1,0.3-1.3,0.9-1.7
		c1.5,0.1,2.7-0.9,4.2-0.8c0.4,0.4,0.6,1.1,1.5,1.1c0.3-1.6,0.4-3.1-1-4.2c-0.6-0.5-1.1-1.1-1.6-1.6c-1.2-1-1.5-2.4-1.3-3.9
		c0-0.5,0.1-1,0.7-1.2c0.5-0.2,0.7,0.2,1,0.5c0.3,0.2,0.5,0.4,0.8,0.6c0.7,1.2,1,2.6,1.2,3.4c-0.2-0.7-0.4-2.1-1.2-3.4
		c0-1,0-1.9-0.2-2.9c-0.3-1,0.1-1.9,0.4-2.8c0.2-0.7,0.6-1.3,1.4-1.3c0.8,0,1.3,0.5,1.6,1.1c1,1.9,1.4,4,0.2,5.9
		c-1,1.7-1.3,3.5-0.9,5.4c0.7,0.2,0.9-0.5,1.3-0.7c0.5-0.3,1-0.5,1.5-0.6c1-0.1,1.4,0.5,1,1.4c-0.4,0.8-1.1,1.4-2,1.7
		c-0.7,0.3-1.7,0.4-1.9,1.4c-0.2,1.2-0.4,2.5,0.1,3.7c0.5,1,1.2,2,1.8,2.9c0.6-0.2,0.7-0.7,0.8-1c0.2-0.4,0.5-0.9,1.1-0.8
		c0.6,0.1,0.9,0.6,1,1.2c0.1,0.5,0,1-0.2,1.4c-1.3,1.7-1,3.3,0.3,5c0.6-0.2,0.5-1.1,1-1.4c0.3-0.2,0.5-0.5,0.9-0.3
		c0.4,0.2,0.6,0.6,0.5,1c-0.1,0.5-0.3,1.1-0.6,1.5c-0.8,1.2-0.8,2.4-0.2,3.7c0.4,0.9,0.5,1.9,1.3,3.1c0.1-2.2,0.2-4,0.3-5.8
		c0-0.7-0.2-1.4-0.1-2.1c0.1-7.3-1-14.4-2.3-21.6c-0.6-3.2-1.6-6.4-2.4-9.6c-0.3-1.1-1.3-1.8-1.7-2.8c-0.8-1.3,0.3-2.9-0.5-4.2
		c-0.9-1-1-2.4-1.6-3.6c-0.4-0.8-0.6-1.7-1-2.5c-1.2-2.3-0.5-4.7,0-7.1c0.1-0.4,0.2-0.8,0.3-1.2c0.8-1.7,0.9-3.2,0-4.9
		c-0.9-1.7-0.3-3.5,0-5.3c0.1-0.6,0.6-0.9,1.3-0.8c0.6,0.1,1,0.4,1.1,1.1c0,1,0,2,0,3.5c1.6-1.3,2.4-2.9,3.4-4.2
		c1.8-2.3,2.3-4.5,0.4-7.4c-1.4-2.1-1.9-5-1.4-7.8c0.1-0.7,0.1-1.5,0.1-2.3c0-0.5,0-1,0.2-1.4c1-2,1.6-1.9,2.9-0.3
		c1.8,2.2,2.2,4.7,2.3,7.3c0,1.4,0,2.7,0,4c0.9,0.4,1.2-0.2,1.6-0.6c1.7-1.6,3.5-3.2,5.2-4.8c0.3-0.2,0.5-0.5,0.8-0.7
		c0.8-0.5,1.6-0.4,2.3,0.2c0.7,0.7,0.5,1.4,0.1,2.1c-0.7,1.2-1.9,2-2.9,2.9c-1.1,0.9-2.5,1.5-3.2,3c1.6,0.8,3.3,1,4.9,1.8
		c2,1,4.1,2.1,5.6,3.8c0.3,0.3,0.7,0.6,0.5,1c-0.2,0.6-0.7,0.7-1.2,0.6c-2.3-0.2-4.5,0.5-6.8,0.5c-1.2,0-2.3,0-3.5,0.3
		c-2,0.4-3.7-0.1-5-1.7c-0.3-0.4-0.5-1-1.1-1.2c-3.4,3.8-5.7,8.2-7,13.2c-0.4,1.6,0,3.2,0.7,4.6c2.2,4.5,4,9.1,5,14
		c0.1,0.4,0.2,0.8,0.6,1c0.6,0.3,0.8-0.3,1.2-0.6c0.6-0.5,1.1-1.7,2-1.1c0.9,0.6,0.3,1.6-0.1,2.4c-0.2,0.5-0.3,1.1-0.7,1.5
		c-1.5,1.4-1.1,2.9-0.7,4.6c1.1,4.4,1.7,8.9,2.3,13.4c0,0.3,0,0.5,0.4,0.8c0.9-1.5,1-3.2,1.6-4.8c0.2-0.6,0.4-1.3,0.7-1.9
		c0.5-1.2,0.7-2.4,0.4-3.8c-0.4-1.8-0.2-3.7-0.1-5.6c0.1-0.8,0.4-1.6,0.9-2c1-0.9,1.6-2.1,2.2-3.2c1.4-2.3,3.3-3.6,6.2-3.3
		c0.3,4.1,0.2,8.2-1.4,12.2c-0.9,2.3-2.6,3.8-5.1,3.9c-1.4,0.1-2,0.8-2.3,1.9c-1,3-1.9,6-2.9,9c-0.2,0.8-0.2,1.5-0.2,2.3
		c0.2,5,0.1,9.9,0,14.9c0,1.4-0.1,2.8-0.3,4.1c-0.2,1.1-0.3,2.2,0,3.4c1.1-0.4,1.3-1.6,2-2.1c0.9-0.7,0.5-1.6,0.5-2.4
		c0.1-1.9,0.4-3.8,1.2-5.6c0.3-0.7,0.7-1.3,1.5-1.2c0.9,0.1,1.2,0.8,1.3,1.6c0.2,1.2-0.4,2.3-0.8,3.3c0.6,0.5,0.8,0,1.1-0.2
		c2.1-1.6,4.3-3,6.2-4.9c0.8-0.8,1.1-1.4,0.4-2.5c-0.8-1.2-0.9-2.8-0.6-4.2c0.6-3.4,2.3-6.3,4.2-9.1c0.2-0.3,0.4-0.6,0.8-0.5
		c0.4,0.1,0.6,0.4,0.6,0.7c0.7,3.8,1,7.6-0.6,11.4c-0.4,1-1.3,1.7-1.9,3.2c1.6-1,2.8-1.9,4-2.6c1.4-0.8,2.8-1.5,4.3-2.1
		c1.1-0.4,2.2-0.2,3.2,0.1c0.9,0.3,1.1,1,0.5,1.8c-0.8,1.2-2,1.9-3.4,2.2c-2.1,0.6-4.1,1-6.3,1.5c0.2,0.8,1,0.9,1.6,1.2
		c3.2,1.7,5.5,4.3,7.5,7.3c0.2,0.3,0.4,0.7,0.5,1.1c0.2,0.7-0.1,1.1-0.8,0.9c-1.5-0.3-3.1-0.7-4.6-1.1c-2.3-0.6-4.7-1.1-6.8-2.4
		c-1.4-0.8-3-1.4-3.6-3.2c-0.2-0.7-0.8-0.7-1.3-0.3c-2.4,1.9-5.2,3.4-7.2,5.9c-1.4,1.7-2.9,3.3-3.8,5.4c-0.7,1.7-1.2,3.5-1.5,5.4
		c-0.7,4.7-1.9,9.3-3.4,13.8c-1.5,4.6-3.1,9.1-5.1,13.5c-2.3,4.9-4.7,9.6-7.6,14.2c-3,4.7-6.1,9.4-9.8,13.6
		c-0.1,0.1-0.2,0.4-0.2,0.5c0.4,0.6,0.8,0.2,1-0.1c2.7-2.7,6.3-3.8,9.5-5.8c4.8-3,9-6.7,12.7-11.1c3.8-4.5,6.9-9.5,9.9-14.5
		c1.3,0.6,1.3,0.9,0.4,2.5c-1.2,1.8-2,3.8-3.2,5.7c-3.4,5.7-7.6,10.8-12.8,14.9c-1.9,1.5-3.8,3.1-6,4.3c0.3,0.8,0.7,1.7-0.9,1.5
		c-0.5-0.1-1.1-0.2-1.6,0.1c-4.2,2.4-8.6,4.6-12.7,7.4c-1.8,1.3-3.4,2.8-5,4.3c-5.3,4.9-10.8,9.4-16.9,13.2c-1,0.6-2,1-3.5,0.7
		c1-1,2.1-1.6,3.1-2.3c3.9-2.7,7.6-5.6,11.2-8.8c0.6-0.5,1.1-1,1.8-1.4c3.2-2.4,4.8-5.8,6.2-9.3c0.3-0.9,0-1.6-0.5-2.3
		c-0.5-0.6-0.7-1.3-0.7-2.1c0-0.4,0.1-0.9,0.5-1c0.4-0.1,0.6,0.2,0.9,0.4c0.3,0.3,0.5,0.7,1.1,0.7c1-1.6,1.1-3.5,1.7-5.2
		c0.5-0.5-0.1-1.2,0.5-1.7c1,0.2,0.1,1.4,0.8,1.8c0,0,0.1,0,0.2,0C441.4,156.7,441.5,156.7,441.5,156.6"/>
	<path class="st0" d="M463.1,45.5c1.1,1.3,0.6,2.8,0.5,4.2c-2.3-2.6-3.8-5.7-6.1-8.3c-0.6-0.7-1.3-1.5-2-2.1
		c-1.1-1.1-1.2-1.1-2.4-0.1c-0.9,0.8-1.6,1.7-2.6,2.3c-1.3,0.9-2.6,1.3-4.2,1.5c-2.4,0.3-4.8,0.4-7.2,0.4c-0.6,0-1.1,0.1-1.6,0.4
		c-0.9,0.5-1.6,0.1-2.3-0.4c-1.2-0.9-1.3-1.8-0.5-2.8c1-1.2,2.4-1.5,3.1-0.3c1,1.7,2.5,1.5,4,1.5c1.1,0,2.2,0,3.3,0
		c2.2,0,4-0.8,5.7-2.1c0.3-0.2,0.6-0.4,0.6-0.8c-0.1-0.5-0.6-0.6-0.9-0.7c-2-0.2-3.9-0.9-5.7-1.7c-1.3-0.5-2.5-1.1-3.7-1.9
		c-0.9-0.6-1.8-1.1-3-1.2c-1.1,0-1.7-0.8-1.7-1.7c0-0.9,1-1.9,2-2c1.1-0.1,2,0.4,2,1.5c0.1,1,0.3,1.7,1.2,2.2
		c3.4,2.1,7.1,3.3,11.5,3.6c-1.5-1.4-2.6-2.6-3.8-3.6c-2.5-2.1-5-4.2-7.5-6.2c-0.9-0.8-1.9-1.2-3.1-1.4c-0.9-0.1-1.9-0.7-2-1.8
		c-0.1-1,0.8-2,2-2.4c0.9-0.3,1.9,0,2.6,0.8c0.5,0.6,0.4,1.1,0.2,1.7c-0.2,0.7,0,1.1,0.5,1.6c2.4,2,4.8,4.1,7.2,6.2
		c0.3,0.2,0.5,0.4,1.1,0.4c0.3-1.8-0.4-3.3-1-4.9c-0.6-1.6-1.5-3.1-2.5-4.5c-0.6-0.8-1.1-1.5-2.1-1.9c-0.4-0.2-0.8-0.5-1.2-0.9
		c-0.7-0.6-1.3-1.3-0.7-2.3c0.3-0.7,2.1-1.3,3-1.2c1,0.2,1.8,1.1,1.8,2c0,0.3,0,0.7-0.2,1c-0.6,1.1-0.1,1.9,0.5,2.9
		c1.8,2.6,3.3,5.4,3.7,8.7c0,0.1,0.1,0.1,0.1,0.2c-0.5,2.7,1.4,3.9,3.1,5.4c2.3,2.1,4.4,4.4,6.1,7c0.7,1,1.3,2.1,2.3,3.1
		C463.2,46.4,463.1,45.9,463.1,45.5"/>
	<path class="st0" d="M441.5,156.6c-0.1,0.3-0.5,0.5-0.6,0.2c-0.2-0.4-0.2-0.9-0.3-1.4c-0.4,0.4-0.2,1.1-0.7,1.3
		c-0.1-1.7,0.4-3.4,0.6-5.1c0.1-1.7,0.3-1.7-1.4-2.2c-0.8-0.2-1.6-0.5-2.2-1c-0.6-0.5-0.7-1.1-0.3-1.8c0.4-0.7,1-0.7,1.6-0.5
		c0.8,0.3,1.6,0.8,2.6,1.3c0-2.4,0.6-4.6,0.5-6.8c-0.1-0.9-0.1-1.8-1.2-2.1c-0.3-0.8-0.2-1.4,0.4-2c0.6,0.4,0.4,1.3,1,1.7
		c1.2-1.2,1.3-1.5,0.7-2.9c-1-2.2-2.2-4.3-3-6.5c-0.2-0.7-0.6-1-1.4-0.7c-0.8,0.3-1.5,0.2-2-0.6c1.2-1,3-0.6,4.2-1.8
		c0.4-0.4,1.2,0.3,1.4,1c-0.8,0.9-0.3,1.9-0.1,2.9c0.4,1.4,1.1,2.6,1.8,4.1c-0.4-2.4-0.5-4.7-1.8-6.6c1-0.7,1.9-1.5,2.5-2.5
		c0.4,0.3,0.6,0.9,1.3,0.8c-0.2,1.4,0,2.6,1.3,3.4c-0.7,1.5-0.7,3.1-1,4.7c1.1-0.6,2.3-1,2-2.7c-0.1-0.8,0.7-1.3,1.6-1.3
		c0.8,0,1.7-0.2,2.2,0.7c0.5,0.9-0.4,2.5-1.7,2.6c-2.8,0.2-4.3,2.2-5.8,4.1c-1.6,2-1.8,4.5-1.4,6.9c0.2,1.7,0.4,3.4,0,5.1
		c-0.1,0.4-0.2,0.9,0.1,1.4c2.9-1.7,2.5-2.6,2.1-4.9c-0.2-1.4-0.5-2.7,0.6-3.9c0.4,0.3,0.5,0.8,0.4,1.3c-0.2,1-0.2,1.6,1.2,1.5
		c1,0,1,1,0.4,1.8c0.1,0.7-0.7,1-0.6,1.8c0.9,0.2,1.8,0.4,2.7,0.7c0.5,0.2,0.8,0.5,0.8,1.1c-0.1,0.5-0.4,0.7-0.8,0.9
		c-1.1,0.6-2.1,0.2-3.2,0c-2.1-0.5-4.1,0.8-4.2,2.9C441.5,154.4,440.5,155.5,441.5,156.6"/>
	<path class="st0" d="M459.4,71.7c-1.3,0.6-2.7,1-4.2,0.8c0.6-0.7,1.6-0.1,2.3-0.6c0.2-0.6-0.3-1-0.5-1.3c-1.3-1.5-2.5-3.1-3.9-4.5
		c-1.2-1.2-1.7-1.1-2.4,0.4c-0.4,0.9-1,1.7-1.7,2.3c-1.1,0.8-2.2,0.3-2.4-1c-0.1-1.1,0.4-2,1.2-2.7c0.7-0.7,1.3-1.3,2.5-0.8
		c0.6,0.3,1.7,0.5,2-0.4c0.3-0.9-0.5-1.5-1.3-1.9c-1.6-0.7-3.2-1.1-4.8-1.9c-0.7-0.3-1.4-0.6-2-1c-0.6-0.4-1.1-0.5-1.7,0
		c-0.5-1.1,0.3-1.2,1-1.5c1.6-0.3,2.7,0.8,4,1.4c0.8,0.4,1.6,0.8,2.8,1.3c-1.7-1.9-3.6-2.8-5-4.4c-0.1-0.9-0.4-1.7,0.1-2.5
		c0.6-0.2,0.7-0.8,1.1-1.2c0.8-0.9,1.8-1.1,2.6-0.7c0.9,0.5,1.2,1.4,0.8,2.3c-0.5,1.1-0.2,2,0.5,2.9c0.5,0.7,0.9,1.4,1.3,2.1
		c1-1.9,1-1.9-0.1-3.8c-0.5-0.8-0.2-1.5,0.9-2.4c0.6-0.5,1.2-0.8,1.8-0.2c0.7,0.7,1,2.2,0.3,2.6c-2.1,1.3-1.6,3.3-1.7,5.1
		c0,0.8,0,1.7,0,2.5c0.1,1.5,0.6,2.8,1.7,3.8C456.2,67.8,458.2,69.4,459.4,71.7"/>
	<path class="st0" d="M477.2,136c0.1-0.4,0.1-0.8,0.2-1.2c0.2-0.7,0-1-0.6-1.3c0-0.7,0.3-1.2,0.8-1.6c0.4,0.1,0.6,0.5,0.8,0.8
		c-0.1,0.6-0.6,1.1-0.2,1.8c3-2,5.3-4.8,7.5-7.6c0.4-0.6,0.3-1,0.1-1.5c-0.3-0.9-0.5-1.9-0.1-2.8c0.2-0.5,0.1-1.1-0.1-1.6
		c-0.3-0.8,0-1.5,0.4-2.2c0.6-1,1.6-1.2,2.5-0.7c0.8,0.5,1,1.7,0.4,2.6c-0.2,0.3-0.5,0.7-0.9,0.9c-1.5,0.7-1.5,2-1.2,3.3
		c0.6,0.1,0.9-0.4,1.1-0.8c1.2-1.8,2.5-3.6,3.6-5.6c0.5-1,0.6-1.7-0.2-2.6c-1.1-1.2-0.6-2.9,0.8-3.7c0.6-0.3,1.2-0.3,1.7,0.1
		c1.2,0.9,1.3,2.9,0.2,3.9c-0.2,0.2-0.6,0.4-0.7,0.7c-0.6,1.2-1.1,2.5-1.4,3.8c1.5-1.5,3.1-2.8,4-4.8c0.3-0.6,0.5-1.3,1.3-1.5
		c1-0.3,2.2,0.1,2.6,0.8c0.5,1-0.2,1.5-0.8,2.1c-0.4,0.4-0.8,0.8-1.4,0.8c-1.2-0.1-1.8,0.5-2.5,1.4c-1.1,1.4-2.4,2.6-4.2,3.3
		c-1.2,0.5-2,1.6-2.8,2.7c-2.2,2.9-4.5,5.8-7.2,8.2C479.8,134.7,478.7,135.7,477.2,136"/>
	<path class="st0" d="M452.8,162.5c0.7-0.7,1.7-0.1,2.4-0.5c-0.1-0.4-1.4-0.8,0-1.1c0.6,0.7,1.4,0.5,2.1,0.4
		c3.6-0.6,6.8-2.1,9.8-4.2c0.7-0.5,1.3-1,1.4-2c0-0.6,0.4-1,0.7-1.4c0.6-0.7,1.7-0.8,2.4-0.4c0.8,0.5,1.1,1.2,0.9,2.1
		c-0.3,1.3-1.7,2.4-3.1,2.1c-0.8-0.2-1.3-0.1-1.9,0.4c-2.1,1.9-4.5,3-7.2,3.7c-0.1,0-0.2,0.2-0.3,0.3c-0.1,0.6,0.4,0.6,0.8,0.8
		c1.7,0.7,3.4,0.4,5.1,0.4c0.7,0,1.1-0.6,1.5-1c1.1-0.9,1.8-0.9,2.7,0c0.9,0.8,1,1.6,0.2,2.5c-0.9,1.1-1.9,1.4-2.8,0.5
		c-0.9-0.8-1.8-0.8-2.9-0.9c-2-0.2-4-0.4-5.7-1.6c-0.4-0.3-0.8-0.4-1.4-0.3C456.1,162.7,454.4,162.4,452.8,162.5"/>
	<path class="st0" d="M447,146c0-0.2,0-0.4,0-0.6c-0.2-1.2-0.2-1.2-1.2-0.6c-0.2,0.1-0.4,0.4-0.7,0.4c-1.3-1.2,0.1-2.6-0.2-3.8
		c0.8-0.9,1.4-2.4,3.1-1.2c0.3,0.2,0.6-0.5,0.8-0.8c1-1.2,2.1-2,3.7-1.8c1.3,0.2,1.6,0.6,1.3,2c-0.6,3-2.7,4.7-5.1,6.2
		C448.3,146,447.6,145.9,447,146"/>
	<path class="st0" d="M458.1,97.3c0,0.7,0,1.4,0.8,1.9c2.3,1.4,3,3.2,2.4,5.7c-0.2,1-0.4,2-1,2.9c-0.4,0.6-0.6,1.2-0.6,1.9
		c-2.1-2.7-3-5.8-2.3-9.2C457.7,99.6,457.3,98.3,458.1,97.3"/>
	<path class="st0" d="M478.5,132.6c-0.5,0-0.8-0.3-0.8-0.8c2.2-4.5,4.6-9,6.5-13.6c0.4-0.9,0.6-1.5-0.2-2.4c-0.7-0.8-0.3-2.1,0.9-3
		c0.5-0.4,2.1-0.3,2.5,0.1c0.3,0.3,0.3,0.6,0.2,1c-0.3,0.8-0.4,1.8-1.3,2.2c-0.9,0.5-1.2,1.4-1.6,2.3
		C482.6,123.2,480.7,128,478.5,132.6"/>
	<path class="st0" d="M474.8,60.8c-0.2-1.6,0.4-2.8,1.3-3.9c0.3-0.4,0.7-0.8,1.4-0.7c2.1,0.1,2.9,1.1,2,3.1
		c-0.6,1.5-1.3,2.9-1.5,4.5c-0.1,0.6-0.6,1.1-1.3,1.2c-0.7,0.1-1.2-0.4-1.4-1C474.9,62.9,474.6,61.8,474.8,60.8"/>
	<path class="st0" d="M481.7,51.2c-0.1,0.2-0.1,0.4-0.2,0.7c-0.4,0.8-0.9,1.5-1.1,2.4c-0.1,0.7-0.7,1.2-1.5,1
		c-0.6-0.1-1.1-1.1-0.7-1.9c0.5-1,1.2-2,2.1-2.7C480.9,50.2,481.7,50.5,481.7,51.2"/>
	<path class="st0" d="M480.6,60.8c0-0.1,0-0.2,0-0.3c0.2-0.8,0.2-2.3,1-2.2c1.2,0.2-0.1,1.3,0.2,2c0,0.1,0,0.3,0,0.4
		c0,0.5-0.1,1.1-0.7,1.1C480.4,61.8,480.6,61.2,480.6,60.8"/>
	<path class="st0" d="M483.2,51.9c0.5,0.8,0.2,1.5,0.3,2.2c0,0.4-0.1,0.8-0.5,0.7c-0.5,0-0.7-0.4-0.7-0.9
		C482.4,53.3,482.5,52.6,483.2,51.9"/>
	<path class="st0" d="M97.9,119.3c0,0.3-0.3,0.5-0.9,0.5c-0.3,0-0.6,0-0.9-0.1c-2.9-0.1-5.3-0.2-7.4-0.2c-2.1,0-5.3,0.1-9.5,0.2
		c-1.4,0-2.4,0.1-3.1,0.1c-0.7,0-1.1-0.2-1.1-0.6c0-0.2,0.1-0.3,0.4-0.4c0.3,0,1.2-0.1,2.8-0.1c1.5-0.2,2.3-0.6,2.6-1.1
		c0.2-0.5,0.4-2.1,0.4-4.9V83.4v-2.3c0-0.7-0.1-1.1-0.1-1c0-1-1.2-1.5-3.6-1.5c-1.3,0-2-0.1-2-0.4c0-0.3,0.1-0.4,0.3-0.5
		c0.2,0,0.8-0.1,1.9-0.1h2.6h5.7h3.7h3.3h3h0.7c0.6,0,0.9,0.2,0.9,0.5c0,0.2-0.1,0.4-0.3,0.4c-0.2,0.1-0.9,0.1-2.2,0.1
		c-1.5,0.1-2.4,0.3-2.7,0.8L92,80.6V115c0,1.7,0.2,2.8,0.7,3.1c0.5,0.3,2,0.5,4.6,0.7C97.7,118.9,97.9,119,97.9,119.3"/>
	<path class="st0" d="M151.6,78.2c0,0.2-0.2,0.3-0.5,0.4c-0.4,0-1.6,0.1-3.8,0.2c-1.3,0-2,0.3-2.2,0.7c-0.2,0.2-0.3,1.5-0.2,3.9v7.1
		v18.5v10.4c0,0.7-0.2,1-0.5,1c-0.5,0-4-3.4-10.4-10.1c-6.4-6.7-13.5-14.5-21.2-23.1v4.5v4v2.1v19c0,0.9,0.3,1.4,0.9,1.6
		c1,0.3,2.2,0.5,3.5,0.5c1.6,0,2.5,0.1,2.7,0.3c0,0,0.1,0.1,0.1,0.2c0,0.3-0.4,0.5-1.1,0.5c-0.4,0-0.8,0-1.1-0.1
		c-2.9-0.1-4.7-0.1-5.4-0.1c-1.7,0-3.9,0-6.6,0.1c-1.3,0-1.9,0.1-1.7,0.1c-0.7,0-1.1-0.2-1.1-0.5c0-0.3,1-0.5,3.2-0.6
		c2.4-0.2,3.8-0.5,4.2-1c0.2-0.3,0.4-1.8,0.4-4.4V88.3c0-2.6,0-4.1-0.1-4.6c-0.3-1.8-1.1-3.1-2.5-3.9c-1.1-0.6-3-1-5.9-1
		c-0.8,0-1.1-0.2-1.1-0.6c0-0.4,0.3-0.6,1-0.6c0.3,0,1.3,0,3.1,0.1c0.9,0,2.1,0.1,3.9,0.1c3.5,0,6.4-0.1,8.6-0.2l25.1,27.6V80.9
		c0-1-0.2-1.6-0.6-1.9c-0.4-0.3-1.2-0.4-2.4-0.5l-3.1-0.1c-0.6,0-0.9-0.2-0.9-0.4c0-0.3,0.4-0.5,1.3-0.5h1.6h1.4h1.6
		c4.8,0,7.6,0,8.5,0.1C151.2,77.7,151.6,77.9,151.6,78.2"/>
	<path class="st0" d="M202.9,78.2c0,0.3-0.2,0.4-0.7,0.5c-2.5,0.1-4.1,0.3-4.8,0.7c-0.6,0.4-1.3,1.5-2.1,3.4c-0.4,0.9-1,2.2-1.7,4
		c-2.5,6-6.6,16.1-12.2,30.3c-0.8,2-1.3,3.1-1.6,3.1c-0.4,0-0.8-0.4-1.1-1.1c-0.6-1.7-1.4-3.6-2.4-5.7c-1.4-3.3-3.4-7.7-5.8-13.1
		c-1.1-2.4-2.7-6-4.9-10.7c-1.2-2.6-2.4-5.4-3.6-8.6c-0.6-1.7-1.9-2.5-3.9-2.5h-2.4c-0.6,0-0.9-0.2-0.9-0.5c0-0.3,0.9-0.5,2.6-0.5
		h12.1h1.9h2.7h4c0.9,0,1.4,0.2,1.4,0.5c0,0.3-0.8,0.5-2.5,0.6c-2.7,0-4.1,0.4-4.1,1.1c0,0.1,0.4,1.2,1.2,3.2
		c3.6,9.3,6.9,16.9,9.6,22.8c0.6-1.3,1.8-4,3.4-8.1c0.4-1.1,1.4-3.6,3-7.5c2.2-5.5,3.3-8.9,3.3-10.1c0-0.7-0.4-1.2-1.1-1.3
		c-0.3,0-1.4-0.1-3.3-0.1c-1,0-1.4-0.2-1.4-0.6c0-0.4,0.3-0.5,1-0.5h3.4h2.5h1.9h1.6h2.3h1.3C202.6,77.5,202.9,77.7,202.9,78.2"/>
	<path class="st0" d="M227,119.3c0,0.3-0.3,0.5-0.9,0.5c-0.3,0-0.6,0-0.9-0.1c-2.9-0.1-5.3-0.2-7.4-0.2c-2.1,0-5.3,0.1-9.5,0.2
		c-1.4,0-2.4,0.1-3.1,0.1c-0.7,0-1.1-0.2-1.1-0.6c0-0.2,0.1-0.3,0.4-0.4c0.3,0,1.2-0.1,2.8-0.1c1.5-0.2,2.3-0.6,2.6-1.1
		c0.2-0.5,0.4-2.1,0.4-4.9V83.4v-2.3c0-0.7-0.1-1.1-0.1-1c0-1-1.2-1.5-3.6-1.5c-1.3,0-2-0.1-2-0.4c0-0.3,0.1-0.4,0.3-0.5
		c0.2,0,0.8-0.1,1.9-0.1h2.6h5.7h3.7h3.3h3h0.7c0.6,0,0.9,0.2,0.9,0.5c0,0.2-0.1,0.4-0.3,0.4c-0.2,0.1-0.9,0.1-2.2,0.1
		c-1.5,0.1-2.4,0.3-2.7,0.8l-0.2,1.2V115c0,1.7,0.2,2.8,0.7,3.1c0.5,0.3,2,0.5,4.6,0.7C226.8,118.9,227,119,227,119.3"/>
	<path class="st0" d="M274.4,88.9c0,0.3-0.2,0.5-0.5,0.5c-0.5,0-1-0.8-1.4-2.4c-0.9-3.1-2.1-5.2-3.6-6.3c-1.5-1.1-4-1.7-7.3-1.7
		h-3.4v37.2c0,1,0.4,1.7,1,2c0.6,0.3,2.3,0.5,5.1,0.7c0.5,0,0.8,0.2,0.8,0.6c0,0.4-0.4,0.6-1.1,0.6c-0.1,0-0.5,0-1.1-0.1
		c-0.7,0-1.3-0.1-1.8-0.1l-7.4-0.2l-12.2,0.3c-0.7,0-1-0.2-1-0.5c0-0.2,0.1-0.4,0.3-0.4c0.2,0,1-0.1,2.4-0.1c2.6-0.1,4-0.6,4.2-1.6
		c0.1-0.5,0.1-4.7,0.1-12.4V79h-1.9c-3.8,0-6.6,0.6-8.3,1.8c-1.7,1.2-2.9,3.3-3.4,6.3c-0.3,1.8-0.8,2.7-1.3,2.7
		c-0.4,0-0.6-0.2-0.6-0.7c0-0.3,0.1-1.4,0.3-3.4c0.4-4,0.6-6.7,0.7-8.2h1.1h5.2c0.1,0,1.8,0,5,0.1c3.2,0.1,7.2,0.1,12.1,0.1
		c2.7,0,5.2,0,7.3,0c2.1,0,4.1,0,5.9,0c1.6,0,2.8,0,3.6-0.1c0.1,2.6,0.5,6,1.1,10.1C274.3,88.3,274.4,88.7,274.4,88.9"/>
	<path class="st0" d="M323.8,119.2c0,0.3-0.2,0.5-0.5,0.6c-0.4,0.1-1.3,0.1-2.8,0.1c-0.4,0-1.5,0-3.2-0.1c-3.5-0.1-6-0.1-7.3-0.1
		c-1.6,0-3,0-4.2,0.1c-2.4,0.1-4,0.1-4.9,0.1c-1.3,0-1.9-0.2-1.9-0.6c0-0.4,1.4-0.6,4.1-0.7c0.7,0,1.2,0,1.5-0.1
		c0.8-0.1,1.1-0.3,1.1-0.7c0-0.2-0.3-1.1-0.9-2.6l-1.5-4c-0.3-0.9-0.9-2.5-1.9-5h-1.3h-5.6c-2,0-4.1,0-6.4,0.1
		c-0.4,0.8-1.2,2.6-2.4,5.5l-1.6,4c-0.2,0.6-0.4,1.1-0.4,1.5c0,0.7,0.5,1.1,1.6,1.3c0.2,0,1.4,0.1,3.5,0.2c0.7,0,1,0.2,1,0.5
		c0,0.3-0.4,0.5-1.3,0.5h-11.8H276c-0.7,0-1-0.2-1-0.6c0-0.2,0.7-0.4,2.2-0.5c1.9-0.1,3.1-0.4,3.7-0.9c0.5-0.5,1.4-2.2,2.6-5.1
		c0.9-2,2.2-5.1,3.9-9l8.7-20.4c0.4-0.9,1-2.3,1.8-4.2c0.5-1.4,0.9-2.1,1.2-2.1c0.3,0,0.8,0.9,1.6,2.8c1,2.4,5.2,11.9,12.6,28.5
		c1,2.1,1.9,4.3,2.9,6.5c0.8,1.9,1.6,3,2.4,3.4c0.6,0.3,2.1,0.5,4.4,0.4C323.5,118.6,323.8,118.8,323.8,119.2 M301,104.9
		c0-0.1-0.2-0.5-0.5-1.2c-1.9-4.7-3.3-8-4.2-10c-0.2-0.5-0.5-1.3-1-2.3l-0.5-1.1c-0.9,1.8-1.9,4.2-3.1,7.3c-1.4,3.5-2.4,5.9-3,7.3
		h1.6h1.6h4H301z"/>
	<path class="st0" d="M384.1,119.4c0,0.4-0.5,0.6-1.4,0.6h-0.5h-5.6h-5.9h-3.3h-6.6H359c-0.7,0-1-0.2-1-0.5c0-0.3,0.3-0.5,1-0.5h2.4
		c2.2,0,3.5-0.3,4-1c0.1-0.2,0.2-1.4,0.2-3.7V81.1c-1.5,3.4-3.6,8.8-6.1,16.1l-6.2,18.7c-0.8,2.3-1.4,3.4-1.9,3.4
		c-0.5,0-1-0.6-1.4-1.7c-0.1-0.4-1.7-4.3-4.6-11.7c-1.1-2.8-4.1-10.7-9-23.7V114c0,1.8,0,2.9,0.1,3.3c0,0.3,0.3,0.6,0.6,0.9
		c0.7,0.5,1.9,0.8,3.7,0.7c1.7,0,2.6,0.2,2.6,0.7c0,0.3-0.4,0.4-1.1,0.4l-6.4-0.2c-1.1,0-2.4,0-3.8,0.1c-1.9,0.1-3.2,0.2-3.9,0.2
		c-1,0-1.5-0.2-1.5-0.6c0-0.3,0.4-0.5,1.2-0.5c1.9,0,3.1,0,3.4-0.1c1.5-0.2,2.3-0.6,2.6-1.4c0.1-0.5,0.2-1.5,0.2-3.1V85.2
		c0-3.3-0.2-5.2-0.7-5.7c-0.5-0.6-2.2-0.8-5.1-0.8c-0.8,0-1.1-0.2-1.1-0.6c0-0.4,0.4-0.6,1.2-0.6h1.9H344c0.1,0,0.4,0,0.8,0.1
		c4.1,11.3,7.5,20.6,10.4,28.1l9.7-28.1l1.5,0h9.5h1.2h1.9h3.3c1,0,1.4,0.2,1.4,0.5c0,0.4-0.3,0.6-0.9,0.5h-1.6
		c-2-0.1-3.4,0.1-4,0.5c-0.7,0.4-1,1.2-1,2.4v2.1V99V116c0,1.5,0.4,2.3,1.3,2.5c0.9,0.2,2.2,0.3,4,0.3
		C383.2,118.8,384.1,119,384.1,119.4"/>
	<path class="st0" d="M429.1,109.1c0,0.1,0,2-0.1,5.7c0,2-0.1,3.4-0.1,4.2c0,0.9,0,1.3,0,1.2c-12.6-0.5-23.6-0.6-33.1-0.4h-6
		c-0.9,0-1.3-0.2-1.3-0.5c0-0.2,0.1-0.4,0.3-0.4s0.9-0.1,2.2-0.2c2.2-0.1,3.5-0.7,3.7-1.6c0.1-0.5,0.1-1.1,0.1-1.8V84.4
		c0-2.4,0-3.8-0.1-4c0-0.7-0.3-1.1-0.7-1.3c-0.4-0.2-1.3-0.4-2.6-0.4c-1.5,0-2.2-0.2-2.2-0.5c0-0.4,0.7-0.6,2-0.6
		c1.3,0,3.1,0,5.5-0.1c8.8-0.2,16-0.2,21.6-0.1h4.9c1,0,2.3-0.1,3.9-0.2l0.6,6.7c0.2,2.1,0.4,3.4,0.4,3.9c0,0.4-0.2,0.6-0.7,0.6
		c-0.5,0-0.8-0.5-0.9-1.6c-0.4-2.8-1.8-4.9-4-6.1c-2.2-1.3-5.5-1.9-9.9-1.9c-1.3,0-3.6,0.1-6.9,0.2v17.7c5.3,0,15.2,0,15.2,0
		l0.1,2.4l-15.3-0.1v19.7h4.6c5.3-0.1,8.5-0.2,9.6-0.3c1.4-0.2,2.8-0.6,4.2-1.3c1.2-0.8,2-1.7,2.5-2.6c0.5-0.9,0.9-2.7,1.5-5.2
		c0.1-0.6,0.4-0.9,0.7-0.9C428.9,108.2,429.1,108.5,429.1,109.1"/>
	<polygon class="st0" points="88.4,152.3 89.7,152.3 89.7,152.3 89.7,164.4 89.7,164.4 88.4,164.4 88.4,164.4 88.4,152.3 	"/>
	<path class="st0" d="M98.4,152.3h1.6c0,0,1.7,2.5,5,7.2l2.1,3.1h0v-10.3l0,0h1.3l0,0v12.1l0,0h-1.5c-0.1-0.1-0.3-0.4-0.7-1
		c0,0-1.7-2.4-5-7.3l-1.4-2.1v10.3l0,0h-1.3l0,0L98.4,152.3L98.4,152.3z"/>
	<path class="st0" d="M117.2,152.3l0.6,1.3l4,9.2h0l3.4-7.8l1.2-2.7l0,0h1.4l0,0h0l-5.3,12l-0.1,0.1h-1.3c0,0-0.3-0.6-0.8-1.9
		l-4.6-10.3l0,0H117.2z"/>
	<polygon class="st0" points="135.2,152.3 136.5,152.3 136.5,152.3 136.5,164.4 136.5,164.4 135.2,164.4 135.2,164.4 135.2,152.3 	
		"/>
	<polygon class="st0" points="143.8,152.3 152.3,152.3 152.3,152.3 152.3,153.4 152.3,153.4 148.7,153.4 148.7,164.4 148.7,164.4 
		147.4,164.4 147.4,164.4 147.4,153.4 143.8,153.4 143.7,153.4 143.7,152.3 	"/>
	<path class="st0" d="M164.9,152.3c0,0,0.1,0.2,0.3,0.6l4.9,11.2l0.1,0.3l0,0h-1.4c0,0-0.3-0.7-0.8-1.9c-0.3-0.6-0.4-0.9-0.5-1h-6.6
		c0,0-0.4,0.8-1,2.2c-0.2,0.4-0.3,0.6-0.3,0.6h-1.3l0,0h0l5.3-12.1H164.9z M164.3,153.9l-2.8,6.5h5.7L164.3,153.9L164.3,153.9z"/>
	<path class="st0" d="M183,152.3h0.1c1.6,0,3,0.6,4.3,1.7c0.6,0.6,0.9,1.1,1.1,1.4c-0.7,0.3-1.1,0.5-1.2,0.5
		c-0.2-0.3-0.4-0.6-0.6-0.9c-1-1-2.2-1.6-3.6-1.6h-0.1c-1.4,0-2.6,0.6-3.7,1.7c-0.8,1-1.2,2-1.2,3.2v0.1c0,1.4,0.5,2.5,1.6,3.6
		c1,0.9,2.1,1.3,3.3,1.3c1.4,0,2.6-0.5,3.6-1.6c0.3-0.3,0.5-0.6,0.6-0.8l1.1,0.5c-0.1,0.3-0.5,0.8-1.1,1.4c-1.3,1.1-2.7,1.7-4.3,1.7
		c-1.7,0-3.2-0.6-4.5-1.9c-1.1-1.2-1.7-2.6-1.7-4.1v-0.1c0-1.7,0.7-3.1,2-4.4C180.1,152.8,181.5,152.3,183,152.3"/>
	<polygon class="st0" points="196.2,152.3 197.4,152.3 197.5,152.3 197.5,164.4 197.4,164.4 196.2,164.4 196.1,164.4 196.1,152.3 	
		"/>
	<path class="st0" d="M211.7,152.3L211.7,152.3c1.6,0,3.1,0.5,4.3,1.6c0.5,0.4,0.8,0.8,0.9,1.1c0.7,1,1.1,2.2,1.1,3.4v0.1
		c0,1.7-0.7,3.1-2,4.4c-1.3,1.1-2.7,1.6-4.3,1.6c-1.6,0-3-0.5-4.3-1.6c-0.6-0.5-0.9-0.9-1-1.2c-0.7-1-1-2.1-1-3.2v-0.1
		c0-1.5,0.5-2.8,1.6-4c0.4-0.4,0.8-0.7,0.9-0.8C209.2,152.6,210.4,152.3,211.7,152.3 M206.7,158.3L206.7,158.3
		c0,1.4,0.5,2.6,1.6,3.7c1,0.9,2.1,1.3,3.4,1.3c1.5,0,2.8-0.6,3.8-1.8c0.8-1,1.2-2,1.2-3.1v-0.1c0-1.3-0.5-2.5-1.6-3.6
		c-1-0.9-2.1-1.3-3.4-1.3c-1.4,0-2.6,0.5-3.7,1.6C207.2,156,206.7,157.1,206.7,158.3"/>
	<path class="st0" d="M226,152.3h1.6c0,0,1.7,2.5,5,7.2l2.1,3.1h0v-10.3l0,0h1.3l0,0v12.1l0,0h-1.5c-0.1-0.1-0.3-0.4-0.7-1
		c0,0-1.7-2.4-5-7.3l-1.4-2.1v10.3l0,0H226l0,0L226,152.3L226,152.3z"/>
	<polygon class="st0" points="244.6,152.3 251.4,152.3 251.4,152.3 251.4,153.4 251.4,153.4 245.9,153.4 245.9,157.7 250.3,157.7 
		250.3,157.8 250.3,158.9 250.3,158.9 245.9,158.9 245.9,163.2 251.4,163.2 251.4,163.2 251.4,164.4 251.4,164.4 244.6,164.4 
		244.6,164.4 244.6,152.3 	"/>
	<path class="st0" d="M262.8,152.1h0.1c0.6,0,1.3,0.1,1.9,0.4c0.2,0.1,0.4,0.2,0.6,0.4c0.1,0.1,0.2,0.2,0.4,0.3
		c0.2,0.2,0.4,0.4,0.5,0.6c0.1,0.1,0.2,0.2,0.2,0.3v0l-1.2,0.5c-0.1-0.2-0.2-0.4-0.5-0.6c-0.6-0.5-1.2-0.8-2-0.8h0
		c-0.8,0-1.4,0.2-1.9,0.6c-0.2,0.2-0.3,0.3-0.4,0.4c-0.3,0.4-0.4,0.8-0.4,1.2c0,0.5,0.2,0.8,0.5,1.1c0.2,0.2,0.5,0.4,0.8,0.5
		c0.6,0.2,1.4,0.5,2.7,0.7c0.3,0.1,0.6,0.2,0.8,0.3c0.3,0.1,0.5,0.3,0.8,0.5c0.2,0.2,0.4,0.3,0.4,0.4c0.1,0.1,0.2,0.3,0.3,0.4
		c0.3,0.5,0.4,1,0.4,1.5v0l0,0l0,0v0c0,0.6-0.2,1.2-0.5,1.7c-0.4,0.7-1.1,1.2-2,1.5c-0.5,0.2-1,0.3-1.5,0.3h-0.2
		c-0.6,0-1.2-0.1-1.9-0.4c-0.2-0.1-0.4-0.2-0.7-0.4c-0.3-0.2-0.7-0.5-0.9-0.8c-0.2-0.2-0.4-0.5-0.5-0.7c-0.1-0.2-0.2-0.3-0.2-0.3
		c0,0,0.4-0.2,1.2-0.4c0.1,0.3,0.3,0.5,0.5,0.7c0.1,0.1,0.2,0.2,0.4,0.4c0.3,0.2,0.5,0.4,0.7,0.4c0.5,0.2,1,0.3,1.5,0.3h0
		c0.6,0,1.2-0.2,1.7-0.5c0.1-0.1,0.3-0.2,0.4-0.3c0.2-0.3,0.4-0.5,0.5-0.9c0.1-0.3,0.1-0.5,0.1-0.7v0c0-0.6-0.2-1.1-0.7-1.5
		c-0.2-0.2-0.4-0.3-0.5-0.3c-0.1,0-0.2-0.1-0.4-0.1c-0.1,0-0.4-0.1-1-0.2c-1-0.2-1.8-0.5-2.4-0.7c-1.2-0.6-1.8-1.4-1.8-2.5v-0.1
		c0-0.7,0.2-1.3,0.7-2c0.1-0.1,0.2-0.2,0.4-0.4c0.2-0.2,0.4-0.3,0.6-0.4c0.3-0.2,0.6-0.3,0.9-0.4
		C261.9,152.2,262.3,152.1,262.8,152.1"/>
	<path class="st0" d="M284.8,152.3h3.3c1.6,0,3,0.5,4.2,1.4c0.6,0.5,0.9,0.8,1.1,1.1c0.9,1.1,1.3,2.3,1.3,3.6c0,1.6-0.6,3-1.9,4.2
		c-1.3,1.2-3,1.8-4.9,1.8h-3.1l0,0L284.8,152.3L284.8,152.3z M286.1,153.4v9.8h1.8c1.9,0,3.5-0.7,4.6-2.2c0.6-0.9,0.9-1.8,0.9-2.7
		c0-1.4-0.6-2.7-1.8-3.7c-0.4-0.3-0.7-0.5-1-0.7c-0.8-0.4-1.6-0.5-2.4-0.5H286.1z"/>
	<polygon class="st0" points="302.7,152.3 303.9,152.3 303.9,152.3 303.9,164.4 303.9,164.4 302.7,164.4 302.6,164.4 302.6,152.3 	
		"/>
	<path class="st0" d="M318.1,152.3h0.1c1.6,0,3.1,0.6,4.3,1.7c0.5,0.5,0.9,0.9,1.1,1.4l0,0.1c-0.7,0.3-1.1,0.5-1.2,0.5h0
		c-0.1-0.3-0.4-0.7-0.9-1.2c-1-0.9-2.1-1.4-3.4-1.4h-0.1c-1.4,0-2.6,0.5-3.7,1.6c-0.8,1-1.3,2.1-1.3,3.2v0.1c0,1.2,0.4,2.3,1.3,3.2
		c1.1,1.1,2.3,1.6,3.7,1.6c1.2,0,2.3-0.4,3.3-1.2c0.5-0.5,0.8-0.8,1-1.1c0.2-0.2,0.4-0.6,0.5-1.1c0.1-0.2,0.1-0.4,0.2-0.6h-3.7l0,0
		v-1.1l0,0h5.1l0,0c0,0.6-0.1,1.3-0.3,2c-0.5,1.3-1.3,2.4-2.4,3.2c-1.1,0.7-2.3,1.1-3.6,1.1c-1.6,0-3-0.5-4.3-1.6
		c-0.5-0.5-0.9-0.9-1.1-1.3c-0.6-1-0.9-2-0.9-3.1v-0.1c0-1.6,0.6-3,1.8-4.2c0.5-0.5,1-0.8,1.3-1C316,152.5,317,152.3,318.1,152.3"/>
	<polygon class="st0" points="332.6,152.3 333.8,152.3 333.9,152.3 333.9,164.4 333.8,164.4 332.6,164.4 332.6,164.4 332.6,152.3 	
		"/>
	<polygon class="st0" points="341.1,152.3 349.7,152.3 349.7,152.3 349.7,153.4 349.7,153.4 346,153.4 346,164.4 346,164.4 
		344.7,164.4 344.7,164.4 344.7,153.4 341.1,153.4 341.1,153.4 341.1,152.3 	"/>
	<path class="st0" d="M362.3,152.3c0,0,0.1,0.2,0.3,0.6l4.9,11.2l0.1,0.3l0,0h-1.4c0,0-0.3-0.7-0.8-1.9c-0.3-0.6-0.4-0.9-0.5-1h-6.6
		c0,0-0.4,0.8-1,2.2c-0.2,0.4-0.3,0.6-0.3,0.6h-1.3l0,0h0l5.3-12.1H362.3z M361.6,153.9l-2.8,6.5h5.7L361.6,153.9L361.6,153.9z"/>
	<polygon class="st0" points="374.9,152.3 376.2,152.3 376.2,152.3 376.2,163.2 382,163.2 382,164.4 374.9,164.4 374.9,164.4 
		374.9,152.3 	"/>
	<polygon class="st0" points="389.3,152.3 396,152.3 396.1,152.3 396.1,153.4 396,153.4 390.6,153.4 390.6,157.7 394.9,157.7 
		395,157.8 395,158.9 394.9,158.9 390.6,158.9 390.6,163.2 396,163.2 396.1,163.2 396.1,164.4 396,164.4 389.3,164.4 389.3,164.4 
		389.3,152.3 	"/>
	<path class="st0" d="M407.4,152.1h0.1c0.6,0,1.3,0.1,1.9,0.4c0.2,0.1,0.4,0.2,0.6,0.4c0.1,0.1,0.2,0.2,0.4,0.3
		c0.2,0.2,0.4,0.4,0.5,0.6c0.1,0.1,0.2,0.2,0.2,0.3v0l-1.2,0.5c-0.1-0.2-0.2-0.4-0.5-0.6c-0.6-0.5-1.2-0.8-2-0.8h0
		c-0.8,0-1.4,0.2-1.9,0.6c-0.2,0.2-0.3,0.3-0.4,0.4c-0.3,0.4-0.4,0.8-0.4,1.2c0,0.5,0.2,0.8,0.5,1.1c0.2,0.2,0.5,0.4,0.8,0.5
		c0.6,0.2,1.4,0.5,2.7,0.7c0.3,0.1,0.6,0.2,0.8,0.3c0.3,0.1,0.5,0.3,0.8,0.5c0.2,0.2,0.4,0.3,0.4,0.4c0.1,0.1,0.2,0.3,0.3,0.4
		c0.3,0.5,0.4,1,0.4,1.5v0l0,0l0,0v0c0,0.6-0.2,1.2-0.5,1.7c-0.4,0.7-1.1,1.2-2,1.5c-0.5,0.2-1,0.3-1.5,0.3h-0.2
		c-0.6,0-1.2-0.1-1.9-0.4c-0.2-0.1-0.4-0.2-0.7-0.4c-0.3-0.2-0.7-0.5-0.9-0.8c-0.2-0.2-0.4-0.5-0.5-0.7c-0.1-0.2-0.2-0.3-0.2-0.3
		c0,0,0.4-0.2,1.2-0.4c0.1,0.3,0.3,0.5,0.5,0.7c0.1,0.1,0.2,0.2,0.4,0.4c0.3,0.2,0.5,0.4,0.7,0.4c0.5,0.2,1,0.3,1.5,0.3h0
		c0.6,0,1.2-0.2,1.7-0.5c0.1-0.1,0.3-0.2,0.4-0.3c0.2-0.3,0.4-0.5,0.5-0.9c0.1-0.3,0.1-0.5,0.1-0.7v0c0-0.6-0.2-1.1-0.7-1.5
		c-0.2-0.2-0.4-0.3-0.5-0.3c-0.1,0-0.2-0.1-0.4-0.1c-0.1,0-0.4-0.1-1-0.2c-1-0.2-1.8-0.5-2.4-0.7c-1.2-0.6-1.8-1.4-1.8-2.5v-0.1
		c0-0.7,0.2-1.3,0.7-2c0.1-0.1,0.2-0.2,0.4-0.4c0.2-0.2,0.4-0.3,0.6-0.4c0.3-0.2,0.6-0.3,0.9-0.4C406.5,152.2,407,152.1,407.4,152.1
		"/>
</g>
</svg>
